<?xml version="1.0" standalone="no"?>
<!DOCTYPE svg PUBLIC "-//W3C//DTD SVG 20010904//EN"
 "http://www.w3.org/TR/2001/REC-SVG-20010904/DTD/svg10.dtd">
<svg version="1.0" xmlns="http://www.w3.org/2000/svg"
 width="255.000000pt" height="255.000000pt" viewBox="0 0 255.000000 255.000000"
 preserveAspectRatio="xMidYMid meet">
<metadata>
Created by potrace 1.11, written by Peter Selinger 2001-2013
</metadata>
<g transform="translate(0.000000,255.000000) scale(0.100000,-0.100000)"
fill="#000000" stroke="none">
<path d="M1090 1404 c0 -17 22 -14 28 4 2 7 -3 12 -12 12 -9 0 -16 -7 -16 -16z"/>
<path d="M230 1401 c0 -5 12 -11 28 -13 27 -3 27 -3 30 -90 4 -116 22 -114 22
2 l0 90 31 0 c17 0 28 4 24 10 -8 13 -135 13 -135 1z"/>
<path d="M438 1395 c-35 -20 -48 -44 -48 -90 0 -72 86 -119 152 -84 27 14 51
74 43 109 -13 61 -92 96 -147 65z m107 -38 c22 -32 18 -75 -10 -102 -55 -55
-124 -13 -115 70 6 59 91 81 125 32z"/>
<path d="M610 1402 c0 -5 13 -33 30 -63 18 -32 30 -69 30 -91 0 -26 5 -38 14
-38 9 0 13 10 11 30 -1 17 10 56 26 91 31 65 34 79 20 79 -5 0 -20 -24 -34
-52 l-24 -53 -27 53 c-23 46 -46 68 -46 44z"/>
<path d="M909 1395 c-56 -30 -63 -125 -12 -165 34 -26 92 -26 127 1 14 11 26
25 26 30 0 16 -26 10 -45 -11 -41 -45 -115 -9 -115 56 0 66 73 102 119 60 22
-20 42 -21 34 -1 -7 20 -55 45 -85 45 -13 -1 -35 -7 -49 -15z"/>
<path d="M1150 1400 c0 -5 11 -10 25 -10 25 0 25 -1 25 -90 0 -73 3 -90 15
-90 12 0 15 17 15 90 0 89 0 90 25 90 14 0 25 5 25 10 0 6 -28 10 -65 10 -37
0 -65 -4 -65 -10z"/>
<path d="M1684 1366 c-26 -20 -14 -28 25 -16 22 6 40 6 52 0 28 -16 34 -12 14
10 -21 23 -63 26 -91 6z"/>
<path d="M1884 1359 c-18 -20 -18 -20 11 -13 36 9 44 9 73 0 27 -9 30 9 3 24
-31 16 -66 12 -87 -11z"/>
<path d="M1090 1285 c0 -60 3 -75 15 -75 12 0 15 15 15 75 0 60 -3 75 -15 75
-12 0 -15 -15 -15 -75z"/>
<path d="M1300 1356 c0 -2 13 -36 30 -76 28 -67 29 -74 15 -100 -18 -36 -19
-51 -2 -44 15 6 102 213 93 222 -10 9 -22 -9 -41 -60 -10 -26 -21 -45 -26 -43
-4 3 -15 28 -24 55 -10 29 -23 50 -31 50 -8 0 -14 -2 -14 -4z"/>
<path d="M1726 1209 c44 -49 96 -60 163 -33 60 24 62 45 3 27 -52 -16 -111
-11 -157 13 l-29 15 20 -22z"/>
</g>
</svg>
